# xmcd CD database file
#
# Track frame offsets:
#	150
#	15845
#	30881
#	45245
#	57271
#	67996
#	87688
#	100138
#	116261
#	132106
#	147969
#	158743
#	166900
#	183028
#	200861
#	212142
#	223263
#	233875
#	244057
#	256280
#	266259
#
# Disc length: 3749 seconds
#
# Revision: 0
# Processed by: cddbd v1.5.1PL2 Copyright (c) Steve Scherf et al.
# Submitted via: NeoAudio 9.9.9
#
DISCID=180ea315
DTITLE=BoereKwela - BoereKwela
DYEAR=2005
DGENRE=Country
TTITLE0=Umfaan
TTITLE1=Happy Trumpeter
TTITLE2=Suikerbossie
TTITLE3=Zambezi
TTITLE4=Hellfire
TTITLE5=Skokiaan
TTITLE6=Sarie Marias
TTITLE7=Swinging Safarie
TTITLE8=Nice to see you
TTITLE9=Preshaya
TTITLE10=That happy feeling
TTITLE11=Boemelaar
TTITLE12=Phata Phata
TTITLE13=Durban Rd
TTITLE14=2 Hearts
TTITLE15=Egoli Kwela
TTITLE16=See you later
TTITLE17=Hong Kong
TTITLE18=Chobolo
TTITLE19=Tsa-Oo
TTITLE20=Umdala
EXTD=YEAR: 2005
EXTT0=
EXTT1=
EXTT2=
EXTT3=
EXTT4=
EXTT5=
EXTT6=
EXTT7=
EXTT8=
EXTT9=
EXTT10=
EXTT11=
EXTT12=
EXTT13=
EXTT14=
EXTT15=
EXTT16=
EXTT17=
EXTT18=
EXTT19=
EXTT20=
PLAYORDER=
